<?xml version="1.0" encoding="UTF-8" standalone="yes"?>
<svg xmlns="http://www.w3.org/2000/svg" xmlns:xlink="http://www.w3.org/1999/xlink" height="824pt" style="width:535px;height:824px;" version="1.1" viewBox="0 0 535 824" width="535pt"><defs><filter height="300%" id="f1" width="300%" x="-1" y="-1"><feGaussianBlur result="blurOut" stdDeviation="2.0"/><feColorMatrix in="blurOut" result="blurOut2" type="matrix" values="0 0 0 0 0 0 0 0 0 0 0 0 0 0 0 0 0 0 .4 0"/><feOffset dx="4.0" dy="4.0" in="blurOut2" result="blurOut3"/><feBlend in="SourceGraphic" in2="blurOut3" mode="normal"/></filter></defs><g><rect fill="#FFFFFF" filter="url(#f1)" height="58.2656" style="stroke: #A80036; stroke-width: 1.0;" width="10" x="110.5" y="69.2969"/><rect fill="#FFFFFF" filter="url(#f1)" height="29.1328" style="stroke: #A80036; stroke-width: 1.0;" width="10" x="410.5" y="127.5625"/><rect fill="#FFFFFF" filter="url(#f1)" height="29.1328" style="stroke: #A80036; stroke-width: 1.0;" width="10" x="410.5" y="185.8281"/><rect fill="#FFFFFF" filter="url(#f1)" height="58.2656" style="stroke: #A80036; stroke-width: 1.0;" width="10" x="410.5" y="244.0938"/><rect fill="#FFFFFF" filter="url(#f1)" height="29.1328" style="stroke: #A80036; stroke-width: 1.0;" width="10" x="410.5" y="331.4922"/><rect fill="#FFFFFF" filter="url(#f1)" height="29.1328" style="stroke: #A80036; stroke-width: 1.0;" width="10" x="410.5" y="389.7578"/><rect fill="#FFFFFF" filter="url(#f1)" height="58.2656" style="stroke: #A80036; stroke-width: 1.0;" width="10" x="410.5" y="448.0234"/><rect fill="#FFFFFF" filter="url(#f1)" height="145.6641" style="stroke: #A80036; stroke-width: 1.0;" width="10" x="410.5" y="535.4219"/><rect fill="#FFFFFF" filter="url(#f1)" height="58.2656" style="stroke: #A80036; stroke-width: 1.0;" width="10" x="410.5" y="710.2188"/><line style="stroke: #A80036; stroke-width: 1.0; stroke-dasharray: 5.0,5.0;" x1="35" x2="35" y1="38.2969" y2="786.6172"/><line style="stroke: #A80036; stroke-width: 1.0; stroke-dasharray: 5.0,5.0;" x1="115" x2="115" y1="38.2969" y2="786.6172"/><line style="stroke: #A80036; stroke-width: 1.0; stroke-dasharray: 5.0,5.0;" x1="261" x2="261" y1="38.2969" y2="786.6172"/><line style="stroke: #A80036; stroke-width: 1.0; stroke-dasharray: 5.0,5.0;" x1="415" x2="415" y1="38.2969" y2="786.6172"/><line style="stroke: #A80036; stroke-width: 1.0; stroke-dasharray: 5.0,5.0;" x1="499.5" x2="499.5" y1="38.2969" y2="786.6172"/><rect fill="#FEFECE" filter="url(#f1)" height="30.2969" style="stroke: #A80036; stroke-width: 1.5;" width="51" x="8" y="3"/><text fill="#000000" font-family="sans-serif" font-size="14" lengthAdjust="spacingAndGlyphs" textLength="37" x="15" y="22.9951">client</text><rect fill="#FEFECE" filter="url(#f1)" height="30.2969" style="stroke: #A80036; stroke-width: 1.5;" width="51" x="8" y="785.6172"/><text fill="#000000" font-family="sans-serif" font-size="14" lengthAdjust="spacingAndGlyphs" textLength="37" x="15" y="805.6123">client</text><rect fill="#FEFECE" filter="url(#f1)" height="30.2969" style="stroke: #A80036; stroke-width: 1.5;" width="57" x="85" y="3"/><text fill="#000000" font-family="sans-serif" font-size="14" lengthAdjust="spacingAndGlyphs" textLength="43" x="92" y="22.9951">server</text><rect fill="#FEFECE" filter="url(#f1)" height="30.2969" style="stroke: #A80036; stroke-width: 1.5;" width="57" x="85" y="785.6172"/><text fill="#000000" font-family="sans-serif" font-size="14" lengthAdjust="spacingAndGlyphs" textLength="43" x="92" y="805.6123">server</text><rect fill="#FEFECE" filter="url(#f1)" height="30.2969" style="stroke: #A80036; stroke-width: 1.5;" width="35" x="242" y="3"/><text fill="#000000" font-family="sans-serif" font-size="14" lengthAdjust="spacingAndGlyphs" textLength="21" x="249" y="22.9951">log</text><rect fill="#FEFECE" filter="url(#f1)" height="30.2969" style="stroke: #A80036; stroke-width: 1.5;" width="35" x="242" y="785.6172"/><text fill="#000000" font-family="sans-serif" font-size="14" lengthAdjust="spacingAndGlyphs" textLength="21" x="249" y="805.6123">log</text><rect fill="#FEFECE" filter="url(#f1)" height="30.2969" style="stroke: #A80036; stroke-width: 1.5;" width="61" x="383" y="3"/><text fill="#000000" font-family="sans-serif" font-size="14" lengthAdjust="spacingAndGlyphs" textLength="47" x="390" y="22.9951">worker</text><rect fill="#FEFECE" filter="url(#f1)" height="30.2969" style="stroke: #A80036; stroke-width: 1.5;" width="61" x="383" y="785.6172"/><text fill="#000000" font-family="sans-serif" font-size="14" lengthAdjust="spacingAndGlyphs" textLength="47" x="390" y="805.6123">worker</text><rect fill="#FEFECE" filter="url(#f1)" height="30.2969" style="stroke: #A80036; stroke-width: 1.5;" width="58" x="468.5" y="3"/><text fill="#000000" font-family="sans-serif" font-size="14" lengthAdjust="spacingAndGlyphs" textLength="44" x="475.5" y="22.9951">maildir</text><rect fill="#FEFECE" filter="url(#f1)" height="30.2969" style="stroke: #A80036; stroke-width: 1.5;" width="58" x="468.5" y="785.6172"/><text fill="#000000" font-family="sans-serif" font-size="14" lengthAdjust="spacingAndGlyphs" textLength="44" x="475.5" y="805.6123">maildir</text><rect fill="#FFFFFF" filter="url(#f1)" height="58.2656" style="stroke: #A80036; stroke-width: 1.0;" width="10" x="110.5" y="69.2969"/><rect fill="#FFFFFF" filter="url(#f1)" height="29.1328" style="stroke: #A80036; stroke-width: 1.0;" width="10" x="410.5" y="127.5625"/><rect fill="#FFFFFF" filter="url(#f1)" height="29.1328" style="stroke: #A80036; stroke-width: 1.0;" width="10" x="410.5" y="185.8281"/><rect fill="#FFFFFF" filter="url(#f1)" height="58.2656" style="stroke: #A80036; stroke-width: 1.0;" width="10" x="410.5" y="244.0938"/><rect fill="#FFFFFF" filter="url(#f1)" height="29.1328" style="stroke: #A80036; stroke-width: 1.0;" width="10" x="410.5" y="331.4922"/><rect fill="#FFFFFF" filter="url(#f1)" height="29.1328" style="stroke: #A80036; stroke-width: 1.0;" width="10" x="410.5" y="389.7578"/><rect fill="#FFFFFF" filter="url(#f1)" height="58.2656" style="stroke: #A80036; stroke-width: 1.0;" width="10" x="410.5" y="448.0234"/><rect fill="#FFFFFF" filter="url(#f1)" height="145.6641" style="stroke: #A80036; stroke-width: 1.0;" width="10" x="410.5" y="535.4219"/><rect fill="#FFFFFF" filter="url(#f1)" height="58.2656" style="stroke: #A80036; stroke-width: 1.0;" width="10" x="410.5" y="710.2188"/><polygon fill="#A80036" points="98.5,65.2969,108.5,69.2969,98.5,73.2969,102.5,69.2969" style="stroke: #A80036; stroke-width: 1.0;"/><line style="stroke: #A80036; stroke-width: 1.0;" x1="35.5" x2="104.5" y1="69.2969" y2="69.2969"/><text fill="#000000" font-family="sans-serif" font-size="13" lengthAdjust="spacingAndGlyphs" textLength="51" x="42.5" y="64.3638">connect</text><polygon fill="#A80036" points="249.5,94.4297,259.5,98.4297,249.5,102.4297,253.5,98.4297" style="stroke: #A80036; stroke-width: 1.0;"/><line style="stroke: #A80036; stroke-width: 1.0;" x1="120.5" x2="255.5" y1="98.4297" y2="98.4297"/><text fill="#000000" font-family="sans-serif" font-size="13" lengthAdjust="spacingAndGlyphs" textLength="117" x="127.5" y="93.4966">accept connection</text><polygon fill="#A80036" points="398.5,123.5625,408.5,127.5625,398.5,131.5625,402.5,127.5625" style="stroke: #A80036; stroke-width: 1.0;"/><line style="stroke: #A80036; stroke-width: 1.0;" x1="115.5" x2="404.5" y1="127.5625" y2="127.5625"/><text fill="#000000" font-family="sans-serif" font-size="13" lengthAdjust="spacingAndGlyphs" textLength="42" x="122.5" y="122.6294">socket</text><polygon fill="#A80036" points="46.5,152.6953,36.5,156.6953,46.5,160.6953,42.5,156.6953" style="stroke: #A80036; stroke-width: 1.0;"/><line style="stroke: #A80036; stroke-width: 1.0;" x1="40.5" x2="414.5" y1="156.6953" y2="156.6953"/><text fill="#000000" font-family="sans-serif" font-size="13" lengthAdjust="spacingAndGlyphs" textLength="24" x="52.5" y="151.7622">220</text><polygon fill="#A80036" points="398.5,181.8281,408.5,185.8281,398.5,189.8281,402.5,185.8281" style="stroke: #A80036; stroke-width: 1.0;"/><line style="stroke: #A80036; stroke-width: 1.0;" x1="35.5" x2="404.5" y1="185.8281" y2="185.8281"/><text fill="#000000" font-family="sans-serif" font-size="13" lengthAdjust="spacingAndGlyphs" textLength="90" x="42.5" y="180.895">ehlo client.net</text><polygon fill="#A80036" points="46.5,210.9609,36.5,214.9609,46.5,218.9609,42.5,214.9609" style="stroke: #A80036; stroke-width: 1.0;"/><line style="stroke: #A80036; stroke-width: 1.0;" x1="40.5" x2="414.5" y1="214.9609" y2="214.9609"/><text fill="#000000" font-family="sans-serif" font-size="13" lengthAdjust="spacingAndGlyphs" textLength="24" x="52.5" y="210.0278">250</text><polygon fill="#A80036" points="398.5,240.0938,408.5,244.0938,398.5,248.0938,402.5,244.0938" style="stroke: #A80036; stroke-width: 1.0;"/><line style="stroke: #A80036; stroke-width: 1.0;" x1="35.5" x2="404.5" y1="244.0938" y2="244.0938"/><text fill="#000000" font-family="sans-serif" font-size="13" lengthAdjust="spacingAndGlyphs" textLength="142" x="42.5" y="239.1606">mail from@source.net</text><polygon fill="#A80036" points="272.5,269.2266,262.5,273.2266,272.5,277.2266,268.5,273.2266" style="stroke: #A80036; stroke-width: 1.0;"/><line style="stroke: #A80036; stroke-width: 1.0;" x1="266.5" x2="409.5" y1="273.2266" y2="273.2266"/><text fill="#000000" font-family="sans-serif" font-size="13" lengthAdjust="spacingAndGlyphs" textLength="111" x="278.5" y="268.2935">begin transaction</text><polygon fill="#A80036" points="46.5,298.3594,36.5,302.3594,46.5,306.3594,42.5,302.3594" style="stroke: #A80036; stroke-width: 1.0;"/><line style="stroke: #A80036; stroke-width: 1.0;" x1="40.5" x2="414.5" y1="302.3594" y2="302.3594"/><text fill="#000000" font-family="sans-serif" font-size="13" lengthAdjust="spacingAndGlyphs" textLength="24" x="52.5" y="297.4263">250</text><polygon fill="#A80036" points="398.5,327.4922,408.5,331.4922,398.5,335.4922,402.5,331.4922" style="stroke: #A80036; stroke-width: 1.0;"/><line style="stroke: #A80036; stroke-width: 1.0;" x1="35.5" x2="404.5" y1="331.4922" y2="331.4922"/><text fill="#000000" font-family="sans-serif" font-size="13" lengthAdjust="spacingAndGlyphs" textLength="150" x="42.5" y="326.5591">rcpt to_first@target.net</text><polygon fill="#A80036" points="46.5,356.625,36.5,360.625,46.5,364.625,42.5,360.625" style="stroke: #A80036; stroke-width: 1.0;"/><line style="stroke: #A80036; stroke-width: 1.0;" x1="40.5" x2="414.5" y1="360.625" y2="360.625"/><text fill="#000000" font-family="sans-serif" font-size="13" lengthAdjust="spacingAndGlyphs" textLength="24" x="52.5" y="355.6919">250</text><polygon fill="#A80036" points="398.5,385.7578,408.5,389.7578,398.5,393.7578,402.5,389.7578" style="stroke: #A80036; stroke-width: 1.0;"/><line style="stroke: #A80036; stroke-width: 1.0;" x1="35.5" x2="404.5" y1="389.7578" y2="389.7578"/><text fill="#000000" font-family="sans-serif" font-size="13" lengthAdjust="spacingAndGlyphs" textLength="173" x="42.5" y="384.8247">rcpt to_second@server.net</text><polygon fill="#A80036" points="46.5,414.8906,36.5,418.8906,46.5,422.8906,42.5,418.8906" style="stroke: #A80036; stroke-width: 1.0;"/><line style="stroke: #A80036; stroke-width: 1.0;" x1="40.5" x2="414.5" y1="418.8906" y2="418.8906"/><text fill="#000000" font-family="sans-serif" font-size="13" lengthAdjust="spacingAndGlyphs" textLength="24" x="52.5" y="413.9575">250</text><polygon fill="#A80036" points="398.5,444.0234,408.5,448.0234,398.5,452.0234,402.5,448.0234" style="stroke: #A80036; stroke-width: 1.0;"/><line style="stroke: #A80036; stroke-width: 1.0;" x1="35.5" x2="404.5" y1="448.0234" y2="448.0234"/><text fill="#000000" font-family="sans-serif" font-size="13" lengthAdjust="spacingAndGlyphs" textLength="29" x="42.5" y="443.0903">data</text><polygon fill="#A80036" points="46.5,473.1563,36.5,477.1563,46.5,481.1563,42.5,477.1563" style="stroke: #A80036; stroke-width: 1.0;"/><line style="stroke: #A80036; stroke-width: 1.0;" x1="40.5" x2="409.5" y1="477.1563" y2="477.1563"/><text fill="#000000" font-family="sans-serif" font-size="13" lengthAdjust="spacingAndGlyphs" textLength="24" x="52.5" y="472.2231">354</text><polygon fill="#A80036" points="487.5,502.2891,497.5,506.2891,487.5,510.2891,491.5,506.2891" style="stroke: #A80036; stroke-width: 1.0;"/><line style="stroke: #A80036; stroke-width: 1.0;" x1="415.5" x2="493.5" y1="506.2891" y2="506.2891"/><text fill="#000000" font-family="sans-serif" font-size="13" lengthAdjust="spacingAndGlyphs" textLength="54" x="422.5" y="501.356">open file</text><polygon fill="#A80036" points="398.5,531.4219,408.5,535.4219,398.5,539.4219,402.5,535.4219" style="stroke: #A80036; stroke-width: 1.0;"/><line style="stroke: #A80036; stroke-width: 1.0;" x1="35.5" x2="404.5" y1="535.4219" y2="535.4219"/><text fill="#000000" font-family="sans-serif" font-size="13" lengthAdjust="spacingAndGlyphs" textLength="50" x="42.5" y="530.4888">first line</text><polygon fill="#A80036" points="487.5,560.5547,497.5,564.5547,487.5,568.5547,491.5,564.5547" style="stroke: #A80036; stroke-width: 1.0;"/><line style="stroke: #A80036; stroke-width: 1.0;" x1="420.5" x2="493.5" y1="564.5547" y2="564.5547"/><text fill="#000000" font-family="sans-serif" font-size="13" lengthAdjust="spacingAndGlyphs" textLength="30" x="427.5" y="559.6216">write</text><polygon fill="#A80036" points="398.5,589.6875,408.5,593.6875,398.5,597.6875,402.5,593.6875" style="stroke: #A80036; stroke-width: 1.0;"/><line style="stroke: #A80036; stroke-width: 1.0;" x1="35.5" x2="404.5" y1="593.6875" y2="593.6875"/><text fill="#000000" font-family="sans-serif" font-size="13" lengthAdjust="spacingAndGlyphs" textLength="4" x="42.5" y="588.7544">.</text><polygon fill="#A80036" points="487.5,618.8203,497.5,622.8203,487.5,626.8203,491.5,622.8203" style="stroke: #A80036; stroke-width: 1.0;"/><line style="stroke: #A80036; stroke-width: 1.0;" x1="420.5" x2="493.5" y1="622.8203" y2="622.8203"/><text fill="#000000" font-family="sans-serif" font-size="13" lengthAdjust="spacingAndGlyphs" textLength="55" x="427.5" y="617.8872">close file</text><polygon fill="#A80036" points="272.5,647.9531,262.5,651.9531,272.5,655.9531,268.5,651.9531" style="stroke: #A80036; stroke-width: 1.0;"/><line style="stroke: #A80036; stroke-width: 1.0;" x1="266.5" x2="409.5" y1="651.9531" y2="651.9531"/><text fill="#000000" font-family="sans-serif" font-size="13" lengthAdjust="spacingAndGlyphs" textLength="125" x="278.5" y="647.02">commit transaction</text><polygon fill="#A80036" points="46.5,677.0859,36.5,681.0859,46.5,685.0859,42.5,681.0859" style="stroke: #A80036; stroke-width: 1.0;"/><line style="stroke: #A80036; stroke-width: 1.0;" x1="40.5" x2="414.5" y1="681.0859" y2="681.0859"/><text fill="#000000" font-family="sans-serif" font-size="13" lengthAdjust="spacingAndGlyphs" textLength="24" x="52.5" y="676.1528">250</text><polygon fill="#A80036" points="398.5,706.2188,408.5,710.2188,398.5,714.2188,402.5,710.2188" style="stroke: #A80036; stroke-width: 1.0;"/><line style="stroke: #A80036; stroke-width: 1.0;" x1="35.5" x2="404.5" y1="710.2188" y2="710.2188"/><text fill="#000000" font-family="sans-serif" font-size="13" lengthAdjust="spacingAndGlyphs" textLength="24" x="42.5" y="705.2856">quit</text><polygon fill="#A80036" points="46.5,735.3516,36.5,739.3516,46.5,743.3516,42.5,739.3516" style="stroke: #A80036; stroke-width: 1.0;"/><line style="stroke: #A80036; stroke-width: 1.0;" x1="40.5" x2="409.5" y1="739.3516" y2="739.3516"/><text fill="#000000" font-family="sans-serif" font-size="13" lengthAdjust="spacingAndGlyphs" textLength="24" x="52.5" y="734.4185">221</text><polygon fill="#A80036" points="272.5,764.4844,262.5,768.4844,272.5,772.4844,268.5,768.4844" style="stroke: #A80036; stroke-width: 1.0;"/><line style="stroke: #A80036; stroke-width: 1.0;" x1="266.5" x2="414.5" y1="768.4844" y2="768.4844"/><text fill="#000000" font-family="sans-serif" font-size="13" lengthAdjust="spacingAndGlyphs" textLength="115" x="278.5" y="763.5513">connection closed</text></g></svg>