<?xml version="1.0" encoding="UTF-8" standalone="yes"?>
<svg xmlns="http://www.w3.org/2000/svg" xmlns:xlink="http://www.w3.org/1999/xlink" height="860pt" style="width:584px;height:860px;" version="1.1" viewBox="0 0 584 860" width="584pt"><defs><filter height="300%" id="f1" width="300%" x="-1" y="-1"><feGaussianBlur result="blurOut" stdDeviation="2.0"/><feColorMatrix in="blurOut" result="blurOut2" type="matrix" values="0 0 0 0 0 0 0 0 0 0 0 0 0 0 0 0 0 0 .4 0"/><feOffset dx="4.0" dy="4.0" in="blurOut2" result="blurOut3"/><feBlend in="SourceGraphic" in2="blurOut3" mode="normal"/></filter></defs><g><rect fill="#FFFFFF" filter="url(#f1)" height="58.2656" style="stroke: #A80036; stroke-width: 1.0;" width="10" x="135.5" y="69.2969"/><rect fill="#FFFFFF" filter="url(#f1)" height="29.1328" style="stroke: #A80036; stroke-width: 1.0;" width="10" x="435.5" y="127.5625"/><rect fill="#FFFFFF" filter="url(#f1)" height="29.1328" style="stroke: #A80036; stroke-width: 1.0;" width="10" x="435.5" y="185.8281"/><rect fill="#FFFFFF" filter="url(#f1)" height="58.2656" style="stroke: #A80036; stroke-width: 1.0;" width="10" x="435.5" y="268.2266"/><rect fill="#FFFFFF" filter="url(#f1)" height="29.1328" style="stroke: #A80036; stroke-width: 1.0;" width="10" x="435.5" y="379.7578"/><rect fill="#FFFFFF" filter="url(#f1)" height="58.2656" style="stroke: #A80036; stroke-width: 1.0;" width="10" x="435.5" y="445.0234"/><rect fill="#FFFFFF" filter="url(#f1)" height="152.6641" style="stroke: #A80036; stroke-width: 1.0;" width="10" x="435.5" y="556.5547"/><rect fill="#FFFFFF" filter="url(#f1)" height="58.2656" style="stroke: #A80036; stroke-width: 1.0;" width="10" x="435.5" y="745.3516"/><rect fill="#FFFFFF" filter="url(#f1)" height="487.2578" style="stroke: #000000; stroke-width: 2.0;" width="562.5" x="13" y="230.0938"/><rect fill="#FFFFFF" filter="url(#f1)" height="75.3984" style="stroke: #000000; stroke-width: 2.0;" width="460" x="23" y="341.625"/><rect fill="#FFFFFF" filter="url(#f1)" height="75.3984" style="stroke: #000000; stroke-width: 2.0;" width="542.5" x="23" y="518.4219"/><line style="stroke: #A80036; stroke-width: 1.0; stroke-dasharray: 5.0,5.0;" x1="60" x2="60" y1="38.2969" y2="821.75"/><line style="stroke: #A80036; stroke-width: 1.0; stroke-dasharray: 5.0,5.0;" x1="140" x2="140" y1="38.2969" y2="821.75"/><line style="stroke: #A80036; stroke-width: 1.0; stroke-dasharray: 5.0,5.0;" x1="286" x2="286" y1="38.2969" y2="821.75"/><line style="stroke: #A80036; stroke-width: 1.0; stroke-dasharray: 5.0,5.0;" x1="440" x2="440" y1="38.2969" y2="821.75"/><line style="stroke: #A80036; stroke-width: 1.0; stroke-dasharray: 5.0,5.0;" x1="524.5" x2="524.5" y1="38.2969" y2="821.75"/><rect fill="#FEFECE" filter="url(#f1)" height="30.2969" style="stroke: #A80036; stroke-width: 1.5;" width="51" x="33" y="3"/><text fill="#000000" font-family="sans-serif" font-size="14" lengthAdjust="spacingAndGlyphs" textLength="37" x="40" y="22.9951">client</text><rect fill="#FEFECE" filter="url(#f1)" height="30.2969" style="stroke: #A80036; stroke-width: 1.5;" width="51" x="33" y="820.75"/><text fill="#000000" font-family="sans-serif" font-size="14" lengthAdjust="spacingAndGlyphs" textLength="37" x="40" y="840.7451">client</text><rect fill="#FEFECE" filter="url(#f1)" height="30.2969" style="stroke: #A80036; stroke-width: 1.5;" width="57" x="110" y="3"/><text fill="#000000" font-family="sans-serif" font-size="14" lengthAdjust="spacingAndGlyphs" textLength="43" x="117" y="22.9951">server</text><rect fill="#FEFECE" filter="url(#f1)" height="30.2969" style="stroke: #A80036; stroke-width: 1.5;" width="57" x="110" y="820.75"/><text fill="#000000" font-family="sans-serif" font-size="14" lengthAdjust="spacingAndGlyphs" textLength="43" x="117" y="840.7451">server</text><rect fill="#FEFECE" filter="url(#f1)" height="30.2969" style="stroke: #A80036; stroke-width: 1.5;" width="35" x="267" y="3"/><text fill="#000000" font-family="sans-serif" font-size="14" lengthAdjust="spacingAndGlyphs" textLength="21" x="274" y="22.9951">log</text><rect fill="#FEFECE" filter="url(#f1)" height="30.2969" style="stroke: #A80036; stroke-width: 1.5;" width="35" x="267" y="820.75"/><text fill="#000000" font-family="sans-serif" font-size="14" lengthAdjust="spacingAndGlyphs" textLength="21" x="274" y="840.7451">log</text><rect fill="#FEFECE" filter="url(#f1)" height="30.2969" style="stroke: #A80036; stroke-width: 1.5;" width="61" x="408" y="3"/><text fill="#000000" font-family="sans-serif" font-size="14" lengthAdjust="spacingAndGlyphs" textLength="47" x="415" y="22.9951">worker</text><rect fill="#FEFECE" filter="url(#f1)" height="30.2969" style="stroke: #A80036; stroke-width: 1.5;" width="61" x="408" y="820.75"/><text fill="#000000" font-family="sans-serif" font-size="14" lengthAdjust="spacingAndGlyphs" textLength="47" x="415" y="840.7451">worker</text><rect fill="#FEFECE" filter="url(#f1)" height="30.2969" style="stroke: #A80036; stroke-width: 1.5;" width="58" x="493.5" y="3"/><text fill="#000000" font-family="sans-serif" font-size="14" lengthAdjust="spacingAndGlyphs" textLength="44" x="500.5" y="22.9951">maildir</text><rect fill="#FEFECE" filter="url(#f1)" height="30.2969" style="stroke: #A80036; stroke-width: 1.5;" width="58" x="493.5" y="820.75"/><text fill="#000000" font-family="sans-serif" font-size="14" lengthAdjust="spacingAndGlyphs" textLength="44" x="500.5" y="840.7451">maildir</text><rect fill="#FFFFFF" filter="url(#f1)" height="58.2656" style="stroke: #A80036; stroke-width: 1.0;" width="10" x="135.5" y="69.2969"/><rect fill="#FFFFFF" filter="url(#f1)" height="29.1328" style="stroke: #A80036; stroke-width: 1.0;" width="10" x="435.5" y="127.5625"/><rect fill="#FFFFFF" filter="url(#f1)" height="29.1328" style="stroke: #A80036; stroke-width: 1.0;" width="10" x="435.5" y="185.8281"/><rect fill="#FFFFFF" filter="url(#f1)" height="58.2656" style="stroke: #A80036; stroke-width: 1.0;" width="10" x="435.5" y="268.2266"/><rect fill="#FFFFFF" filter="url(#f1)" height="29.1328" style="stroke: #A80036; stroke-width: 1.0;" width="10" x="435.5" y="379.7578"/><rect fill="#FFFFFF" filter="url(#f1)" height="58.2656" style="stroke: #A80036; stroke-width: 1.0;" width="10" x="435.5" y="445.0234"/><rect fill="#FFFFFF" filter="url(#f1)" height="152.6641" style="stroke: #A80036; stroke-width: 1.0;" width="10" x="435.5" y="556.5547"/><rect fill="#FFFFFF" filter="url(#f1)" height="58.2656" style="stroke: #A80036; stroke-width: 1.0;" width="10" x="435.5" y="745.3516"/><polygon fill="#A80036" points="123.5,65.2969,133.5,69.2969,123.5,73.2969,127.5,69.2969" style="stroke: #A80036; stroke-width: 1.0;"/><line style="stroke: #A80036; stroke-width: 1.0;" x1="60.5" x2="129.5" y1="69.2969" y2="69.2969"/><text fill="#000000" font-family="sans-serif" font-size="13" lengthAdjust="spacingAndGlyphs" textLength="51" x="67.5" y="64.3638">connect</text><polygon fill="#A80036" points="274.5,94.4297,284.5,98.4297,274.5,102.4297,278.5,98.4297" style="stroke: #A80036; stroke-width: 1.0;"/><line style="stroke: #A80036; stroke-width: 1.0;" x1="145.5" x2="280.5" y1="98.4297" y2="98.4297"/><text fill="#000000" font-family="sans-serif" font-size="13" lengthAdjust="spacingAndGlyphs" textLength="117" x="152.5" y="93.4966">accept connection</text><polygon fill="#A80036" points="423.5,123.5625,433.5,127.5625,423.5,131.5625,427.5,127.5625" style="stroke: #A80036; stroke-width: 1.0;"/><line style="stroke: #A80036; stroke-width: 1.0;" x1="140.5" x2="429.5" y1="127.5625" y2="127.5625"/><text fill="#000000" font-family="sans-serif" font-size="13" lengthAdjust="spacingAndGlyphs" textLength="42" x="147.5" y="122.6294">socket</text><polygon fill="#A80036" points="71.5,152.6953,61.5,156.6953,71.5,160.6953,67.5,156.6953" style="stroke: #A80036; stroke-width: 1.0;"/><line style="stroke: #A80036; stroke-width: 1.0; stroke-dasharray: 2.0,2.0;" x1="65.5" x2="439.5" y1="156.6953" y2="156.6953"/><text fill="#000000" font-family="sans-serif" font-size="13" lengthAdjust="spacingAndGlyphs" textLength="24" x="77.5" y="151.7622">220</text><polygon fill="#A80036" points="423.5,181.8281,433.5,185.8281,423.5,189.8281,427.5,185.8281" style="stroke: #A80036; stroke-width: 1.0;"/><line style="stroke: #A80036; stroke-width: 1.0;" x1="60.5" x2="429.5" y1="185.8281" y2="185.8281"/><text fill="#000000" font-family="sans-serif" font-size="13" lengthAdjust="spacingAndGlyphs" textLength="90" x="67.5" y="180.895">ehlo client.net</text><polygon fill="#A80036" points="71.5,210.9609,61.5,214.9609,71.5,218.9609,67.5,214.9609" style="stroke: #A80036; stroke-width: 1.0;"/><line style="stroke: #A80036; stroke-width: 1.0; stroke-dasharray: 2.0,2.0;" x1="65.5" x2="439.5" y1="214.9609" y2="214.9609"/><text fill="#000000" font-family="sans-serif" font-size="13" lengthAdjust="spacingAndGlyphs" textLength="24" x="77.5" y="210.0278">250</text><rect fill="none" height="487.2578" style="stroke: #000000; stroke-width: 2.0;" width="562.5" x="13" y="230.0938"/><polygon fill="#EEEEEE" points="13,230.0938,90,230.0938,90,237.0938,80,247.0938,13,247.0938,13,230.0938" style="stroke: #000000; stroke-width: 2.0;"/><text fill="#000000" font-family="sans-serif" font-size="13" font-weight="bold" lengthAdjust="spacingAndGlyphs" textLength="32" x="28" y="243.1606">loop</text><polygon fill="#A80036" points="423.5,264.2266,433.5,268.2266,423.5,272.2266,427.5,268.2266" style="stroke: #A80036; stroke-width: 1.0;"/><line style="stroke: #A80036; stroke-width: 1.0;" x1="60.5" x2="429.5" y1="268.2266" y2="268.2266"/><text fill="#000000" font-family="sans-serif" font-size="13" lengthAdjust="spacingAndGlyphs" textLength="27" x="67.5" y="263.2935">mail</text><polygon fill="#A80036" points="297.5,293.3594,287.5,297.3594,297.5,301.3594,293.5,297.3594" style="stroke: #A80036; stroke-width: 1.0;"/><line style="stroke: #A80036; stroke-width: 1.0;" x1="291.5" x2="434.5" y1="297.3594" y2="297.3594"/><text fill="#000000" font-family="sans-serif" font-size="13" lengthAdjust="spacingAndGlyphs" textLength="111" x="303.5" y="292.4263">begin transaction</text><polygon fill="#A80036" points="71.5,322.4922,61.5,326.4922,71.5,330.4922,67.5,326.4922" style="stroke: #A80036; stroke-width: 1.0;"/><line style="stroke: #A80036; stroke-width: 1.0; stroke-dasharray: 2.0,2.0;" x1="65.5" x2="439.5" y1="326.4922" y2="326.4922"/><text fill="#000000" font-family="sans-serif" font-size="13" lengthAdjust="spacingAndGlyphs" textLength="24" x="77.5" y="321.5591">250</text><rect fill="none" height="75.3984" style="stroke: #000000; stroke-width: 2.0;" width="460" x="23" y="341.625"/><polygon fill="#EEEEEE" points="23,341.625,100,341.625,100,348.625,90,358.625,23,358.625,23,341.625" style="stroke: #000000; stroke-width: 2.0;"/><text fill="#000000" font-family="sans-serif" font-size="13" font-weight="bold" lengthAdjust="spacingAndGlyphs" textLength="32" x="38" y="354.6919">loop</text><polygon fill="#A80036" points="423.5,375.7578,433.5,379.7578,423.5,383.7578,427.5,379.7578" style="stroke: #A80036; stroke-width: 1.0;"/><line style="stroke: #A80036; stroke-width: 1.0;" x1="60.5" x2="429.5" y1="379.7578" y2="379.7578"/><text fill="#000000" font-family="sans-serif" font-size="13" lengthAdjust="spacingAndGlyphs" textLength="25" x="67.5" y="374.8247">rcpt</text><polygon fill="#A80036" points="71.5,404.8906,61.5,408.8906,71.5,412.8906,67.5,408.8906" style="stroke: #A80036; stroke-width: 1.0;"/><line style="stroke: #A80036; stroke-width: 1.0; stroke-dasharray: 2.0,2.0;" x1="65.5" x2="439.5" y1="408.8906" y2="408.8906"/><text fill="#000000" font-family="sans-serif" font-size="13" lengthAdjust="spacingAndGlyphs" textLength="24" x="77.5" y="403.9575">250</text><polygon fill="#A80036" points="423.5,441.0234,433.5,445.0234,423.5,449.0234,427.5,445.0234" style="stroke: #A80036; stroke-width: 1.0;"/><line style="stroke: #A80036; stroke-width: 1.0;" x1="60.5" x2="429.5" y1="445.0234" y2="445.0234"/><text fill="#000000" font-family="sans-serif" font-size="13" lengthAdjust="spacingAndGlyphs" textLength="29" x="67.5" y="440.0903">data</text><polygon fill="#A80036" points="71.5,470.1563,61.5,474.1563,71.5,478.1563,67.5,474.1563" style="stroke: #A80036; stroke-width: 1.0;"/><line style="stroke: #A80036; stroke-width: 1.0; stroke-dasharray: 2.0,2.0;" x1="65.5" x2="434.5" y1="474.1563" y2="474.1563"/><text fill="#000000" font-family="sans-serif" font-size="13" lengthAdjust="spacingAndGlyphs" textLength="24" x="77.5" y="469.2231">354</text><polygon fill="#A80036" points="512.5,499.2891,522.5,503.2891,512.5,507.2891,516.5,503.2891" style="stroke: #A80036; stroke-width: 1.0;"/><line style="stroke: #A80036; stroke-width: 1.0;" x1="440.5" x2="518.5" y1="503.2891" y2="503.2891"/><text fill="#000000" font-family="sans-serif" font-size="13" lengthAdjust="spacingAndGlyphs" textLength="54" x="447.5" y="498.356">open file</text><rect fill="none" height="75.3984" style="stroke: #000000; stroke-width: 2.0;" width="542.5" x="23" y="518.4219"/><polygon fill="#EEEEEE" points="23,518.4219,100,518.4219,100,525.4219,90,535.4219,23,535.4219,23,518.4219" style="stroke: #000000; stroke-width: 2.0;"/><text fill="#000000" font-family="sans-serif" font-size="13" font-weight="bold" lengthAdjust="spacingAndGlyphs" textLength="32" x="38" y="531.4888">loop</text><polygon fill="#A80036" points="423.5,552.5547,433.5,556.5547,423.5,560.5547,427.5,556.5547" style="stroke: #A80036; stroke-width: 1.0;"/><line style="stroke: #A80036; stroke-width: 1.0;" x1="60.5" x2="429.5" y1="556.5547" y2="556.5547"/><text fill="#000000" font-family="sans-serif" font-size="13" lengthAdjust="spacingAndGlyphs" textLength="36" x="67.5" y="551.6216">string</text><polygon fill="#A80036" points="512.5,581.6875,522.5,585.6875,512.5,589.6875,516.5,585.6875" style="stroke: #A80036; stroke-width: 1.0;"/><line style="stroke: #A80036; stroke-width: 1.0;" x1="445.5" x2="518.5" y1="585.6875" y2="585.6875"/><text fill="#000000" font-family="sans-serif" font-size="13" lengthAdjust="spacingAndGlyphs" textLength="30" x="452.5" y="580.7544">write</text><polygon fill="#A80036" points="423.5,617.8203,433.5,621.8203,423.5,625.8203,427.5,621.8203" style="stroke: #A80036; stroke-width: 1.0;"/><line style="stroke: #A80036; stroke-width: 1.0;" x1="60.5" x2="429.5" y1="621.8203" y2="621.8203"/><text fill="#000000" font-family="sans-serif" font-size="13" lengthAdjust="spacingAndGlyphs" textLength="4" x="67.5" y="616.8872">.</text><polygon fill="#A80036" points="512.5,646.9531,522.5,650.9531,512.5,654.9531,516.5,650.9531" style="stroke: #A80036; stroke-width: 1.0;"/><line style="stroke: #A80036; stroke-width: 1.0;" x1="445.5" x2="518.5" y1="650.9531" y2="650.9531"/><text fill="#000000" font-family="sans-serif" font-size="13" lengthAdjust="spacingAndGlyphs" textLength="55" x="452.5" y="646.02">close file</text><polygon fill="#A80036" points="297.5,676.0859,287.5,680.0859,297.5,684.0859,293.5,680.0859" style="stroke: #A80036; stroke-width: 1.0;"/><line style="stroke: #A80036; stroke-width: 1.0;" x1="291.5" x2="434.5" y1="680.0859" y2="680.0859"/><text fill="#000000" font-family="sans-serif" font-size="13" lengthAdjust="spacingAndGlyphs" textLength="125" x="303.5" y="675.1528">commit transaction</text><polygon fill="#A80036" points="71.5,705.2188,61.5,709.2188,71.5,713.2188,67.5,709.2188" style="stroke: #A80036; stroke-width: 1.0;"/><line style="stroke: #A80036; stroke-width: 1.0; stroke-dasharray: 2.0,2.0;" x1="65.5" x2="439.5" y1="709.2188" y2="709.2188"/><text fill="#000000" font-family="sans-serif" font-size="13" lengthAdjust="spacingAndGlyphs" textLength="24" x="77.5" y="704.2856">250</text><polygon fill="#A80036" points="423.5,741.3516,433.5,745.3516,423.5,749.3516,427.5,745.3516" style="stroke: #A80036; stroke-width: 1.0;"/><line style="stroke: #A80036; stroke-width: 1.0;" x1="60.5" x2="429.5" y1="745.3516" y2="745.3516"/><text fill="#000000" font-family="sans-serif" font-size="13" lengthAdjust="spacingAndGlyphs" textLength="24" x="67.5" y="740.4185">quit</text><polygon fill="#A80036" points="71.5,770.4844,61.5,774.4844,71.5,778.4844,67.5,774.4844" style="stroke: #A80036; stroke-width: 1.0;"/><line style="stroke: #A80036; stroke-width: 1.0; stroke-dasharray: 2.0,2.0;" x1="65.5" x2="434.5" y1="774.4844" y2="774.4844"/><text fill="#000000" font-family="sans-serif" font-size="13" lengthAdjust="spacingAndGlyphs" textLength="24" x="77.5" y="769.5513">221</text><polygon fill="#A80036" points="297.5,799.6172,287.5,803.6172,297.5,807.6172,293.5,803.6172" style="stroke: #A80036; stroke-width: 1.0;"/><line style="stroke: #A80036; stroke-width: 1.0;" x1="291.5" x2="439.5" y1="803.6172" y2="803.6172"/><text fill="#000000" font-family="sans-serif" font-size="13" lengthAdjust="spacingAndGlyphs" textLength="115" x="303.5" y="798.6841">connection closed</text></g></svg>