<?xml version="1.0" encoding="UTF-8"?><svg xmlns="http://www.w3.org/2000/svg" xmlns:xlink="http://www.w3.org/1999/xlink" fill-opacity="1" color-rendering="auto" color-interpolation="auto" stroke="black" text-rendering="auto" stroke-linecap="square" width="600" stroke-miterlimit="10" stroke-opacity="1" shape-rendering="auto" fill="black" stroke-dasharray="none" font-weight="normal" stroke-width="1" height="440" font-family="'Dialog'" font-style="normal" stroke-linejoin="miter" font-size="12" stroke-dashoffset="0" image-rendering="auto">
  <!--Generated by ySVG-->
  <defs id="genericDefs"/>
  <g>
    <defs id="defs1">
      <clipPath clipPathUnits="userSpaceOnUse" id="clipPath1">
        <path d="M0 0 L600 0 L600 440 L0 440 L0 0 Z"/>
      </clipPath>
      <clipPath clipPathUnits="userSpaceOnUse" id="clipPath2">
        <path d="M495 440 L1095 440 L1095 880 L495 880 L495 440 Z"/>
      </clipPath>
    </defs>
    <g fill="white" transform="translate(-495,-440)" stroke="white">
      <rect x="495" width="600" height="440" y="440" clip-path="url(#clipPath2)" stroke="none"/>
    </g>
    <g stroke-linecap="butt" transform="matrix(1,0,0,1,-495,-440)" stroke-miterlimit="1.45">
      <path fill="none" d="M810 455 L930 455 L930 505 L810 505 Z" clip-path="url(#clipPath2)"/>
      <text x="851.2969" xml:space="preserve" y="484.3037" font-family="'Times New Roman'" clip-path="url(#clipPath2)" stroke="none">Клиент</text>
    </g>
    <g stroke-linecap="butt" transform="matrix(1,0,0,1,-495,-440)" stroke-miterlimit="1.45">
      <path fill="none" d="M510 455 L630 455 L630 505 L510 505 Z" clip-path="url(#clipPath2)"/>
      <text x="535.7051" xml:space="preserve" y="484.3037" font-family="'Times New Roman'" clip-path="url(#clipPath2)" stroke="none">SMTP-сессия</text>
    </g>
    <g stroke-linecap="butt" transform="matrix(1,0,0,1,-495,-440)" stroke-miterlimit="1.45">
      <path fill="none" d="M660 725 L780 725 L780 775 L660 775 Z" clip-path="url(#clipPath2)"/>
      <text x="700.2598" xml:space="preserve" y="754.3037" font-family="'Times New Roman'" clip-path="url(#clipPath2)" stroke="none">Письмо</text>
    </g>
    <g stroke-linecap="butt" transform="matrix(1,0,0,1,-495,-440)" stroke-miterlimit="1.45">
      <path fill="none" d="M810 725 L930 725 L930 775 L810 775 Z" clip-path="url(#clipPath2)"/>
      <text x="828.9463" xml:space="preserve" y="754.3037" font-family="'Times New Roman'" clip-path="url(#clipPath2)" stroke="none">Почтовый ящик</text>
    </g>
    <g stroke-linecap="butt" transform="matrix(1,0,0,1,-495,-440)" stroke-miterlimit="1.45">
      <path fill="none" d="M510 635 L630 635 L630 685 L510 685 Z" clip-path="url(#clipPath2)"/>
      <text x="545.7715" xml:space="preserve" y="657.6592" font-family="'Times New Roman'" clip-path="url(#clipPath2)" stroke="none">Почтовая</text>
      <text x="541.374" xml:space="preserve" y="670.9482" font-family="'Times New Roman'" clip-path="url(#clipPath2)" stroke="none">транзакция</text>
    </g>
    <g stroke-linecap="butt" transform="matrix(1,0,0,1,-495,-440)" stroke-miterlimit="1.45">
      <path fill="none" d="M720 455 L780 480 L720 505 L660 480 Z" clip-path="url(#clipPath2)"/>
      <text x="688.3271" xml:space="preserve" y="484.3037" font-family="'Times New Roman'" clip-path="url(#clipPath2)" stroke="none">Инициирует</text>
    </g>
    <g stroke-linecap="butt" transform="matrix(1,0,0,1,-495,-440)" stroke-miterlimit="1.45">
      <path fill="none" d="M570 545 L630 570 L570 595 L510 570 Z" clip-path="url(#clipPath2)"/>
      <text x="541.5059" xml:space="preserve" y="574.3037" font-family="'Times New Roman'" clip-path="url(#clipPath2)" stroke="none">Выполняет</text>
    </g>
    <g stroke-linecap="butt" transform="matrix(1,0,0,1,-495,-440)" stroke-miterlimit="1.45">
      <path fill="none" d="M570 725 L630 750 L570 775 L510 750 Z" clip-path="url(#clipPath2)"/>
      <text x="543.668" xml:space="preserve" y="754.3037" font-family="'Times New Roman'" clip-path="url(#clipPath2)" stroke="none">Участвует</text>
    </g>
    <g stroke-linecap="butt" transform="matrix(1,0,0,1,-495,-440)" stroke-miterlimit="1.45">
      <path fill="none" d="M720 815 L780 840 L720 865 L660 840 Z" clip-path="url(#clipPath2)"/>
      <text x="680.9414" xml:space="preserve" y="844.3037" font-family="'Times New Roman'" clip-path="url(#clipPath2)" stroke="none">Предназначено</text>
    </g>
    <g stroke-linecap="butt" transform="matrix(1,0,0,1,-495,-440)" stroke-miterlimit="1.45">
      <path fill="none" d="M870 635 L930 660 L870 685 L810 660 Z" clip-path="url(#clipPath2)"/>
      <text x="839.4697" xml:space="preserve" y="664.3037" font-family="'Times New Roman'" clip-path="url(#clipPath2)" stroke="none">Отправлено</text>
    </g>
    <g stroke-linecap="butt" transform="matrix(1,0,0,1,-495,-440)" stroke-miterlimit="1.45">
      <ellipse rx="60" fill="none" ry="25" clip-path="url(#clipPath2)" cx="1020" cy="750"/>
      <text x="1004.2881" xml:space="preserve" y="754.3037" font-family="'Times New Roman'" clip-path="url(#clipPath2)" stroke="none">Адрес</text>
    </g>
    <g stroke-linecap="butt" transform="matrix(1,0,0,1,-495,-440)" stroke-miterlimit="1.45">
      <ellipse rx="60" fill="none" ry="25" clip-path="url(#clipPath2)" cx="1020" cy="480"/>
      <text x="1003.2363" xml:space="preserve" y="484.3037" font-family="'Times New Roman'" clip-path="url(#clipPath2)" stroke="none">Домен</text>
    </g>
    <g stroke-linecap="butt" transform="matrix(1,0,0,1,-495,-440)" stroke-miterlimit="1.45">
      <path fill="none" d="M809.978 480 L779.9707 480" clip-path="url(#clipPath2)"/>
    </g>
    <g fill="white" stroke-miterlimit="1.45" transform="matrix(1,0,0,1,-495,-440)" stroke-linecap="butt" stroke="white">
      <rect x="790" width="10" height="17.2891" y="471.3555" clip-path="url(#clipPath2)" stroke="none"/>
      <text x="792" y="484.3037" clip-path="url(#clipPath2)" fill="black" font-family="'Times New Roman'" stroke="none" xml:space="preserve">1</text>
      <path fill="none" d="M659.978 480 L629.9707 480" clip-path="url(#clipPath2)" stroke="black"/>
      <rect x="638.667" width="12.666" height="17.2891" y="471.3555" clip-path="url(#clipPath2)" stroke="none"/>
      <text x="640.667" y="484.3037" clip-path="url(#clipPath2)" fill="black" font-family="'Times New Roman'" stroke="none" xml:space="preserve">N</text>
      <path fill="none" d="M570 505.0049 L570 545.0239" clip-path="url(#clipPath2)" stroke="black"/>
      <rect x="565" width="10" height="17.2891" y="516.3555" clip-path="url(#clipPath2)" stroke="none"/>
      <text x="567" y="529.3037" clip-path="url(#clipPath2)" fill="black" font-family="'Times New Roman'" stroke="none" xml:space="preserve">1</text>
      <path fill="none" d="M570 595.0049 L570 635.0239" clip-path="url(#clipPath2)" stroke="black"/>
      <rect x="563.667" width="12.666" height="17.2891" y="606.3555" clip-path="url(#clipPath2)" stroke="none"/>
      <text x="565.667" y="619.3037" clip-path="url(#clipPath2)" fill="black" font-family="'Times New Roman'" stroke="none" xml:space="preserve">N</text>
      <path fill="none" d="M630.022 750 L660.0293 750" clip-path="url(#clipPath2)" stroke="black"/>
      <rect x="640" width="10" height="17.2891" y="741.3555" clip-path="url(#clipPath2)" stroke="none"/>
      <text x="642" y="754.3037" clip-path="url(#clipPath2)" fill="black" font-family="'Times New Roman'" stroke="none" xml:space="preserve">1</text>
      <path fill="none" d="M570 724.9951 L570 684.9761" clip-path="url(#clipPath2)" stroke="black"/>
      <rect x="565" width="10" height="17.2891" y="696.3555" clip-path="url(#clipPath2)" stroke="none"/>
      <text x="567" y="709.3037" clip-path="url(#clipPath2)" fill="black" font-family="'Times New Roman'" stroke="none" xml:space="preserve">1</text>
      <path fill="none" d="M720 775.0049 L720 815.0239" clip-path="url(#clipPath2)" stroke="black"/>
      <rect x="712.665" width="14.6699" height="17.2891" y="786.3555" clip-path="url(#clipPath2)" stroke="none"/>
      <text x="714.665" y="799.3037" clip-path="url(#clipPath2)" fill="black" font-family="'Times New Roman'" stroke="none" xml:space="preserve">M</text>
      <path fill="none" d="M744.5728 825.2563 L828.3236 775.0059" clip-path="url(#clipPath2)" stroke="black"/>
      <rect x="778.0745" width="12.666" height="17.2891" y="792.7109" clip-path="url(#clipPath2)" stroke="none"/>
      <text x="780.0745" y="805.6592" clip-path="url(#clipPath2)" fill="black" font-family="'Times New Roman'" stroke="none" xml:space="preserve">N</text>
      <path fill="none" d="M761.6382 725.0171 L845.4228 674.7463" clip-path="url(#clipPath2)" stroke="black"/>
      <rect x="788.667" width="12.666" height="17.2891" y="696.3555" clip-path="url(#clipPath2)" stroke="none"/>
      <text x="790.667" y="709.3037" clip-path="url(#clipPath2)" fill="black" font-family="'Times New Roman'" stroke="none" xml:space="preserve">N</text>
      <path fill="none" d="M870 724.9951 L870 684.9761" clip-path="url(#clipPath2)" stroke="black"/>
      <rect x="865" width="10" height="17.2891" y="690" clip-path="url(#clipPath2)" stroke="none"/>
      <text x="867" y="702.9482" clip-path="url(#clipPath2)" fill="black" font-family="'Times New Roman'" stroke="none" xml:space="preserve">1</text>
      <path fill="none" d="M959.978 750 L929.9707 750" clip-path="url(#clipPath2)" stroke="black"/>
      <path fill="none" d="M959.978 480 L929.9707 480" clip-path="url(#clipPath2)" stroke="black"/>
    </g>
  </g>
</svg>
