<?xml version="1.0" encoding="UTF-8" standalone="no"?>
<!DOCTYPE svg PUBLIC "-//W3C//DTD SVG 1.1//EN"
 "http://www.w3.org/Graphics/SVG/1.1/DTD/svg11.dtd">
<!-- Generated by graphviz version 2.36.0 (20140111.2315)
 -->
<!-- Title: smtp_server Pages: 1 -->
<svg width="993pt" height="396pt"
 viewBox="0.00 0.00 993.12 396.00" xmlns="http://www.w3.org/2000/svg" xmlns:xlink="http://www.w3.org/1999/xlink">
<g id="graph0" class="graph" transform="scale(1 1) rotate(0) translate(4 392)">
<title>smtp_server</title>
<polygon fill="white" stroke="none" points="-4,4 -4,-392 989.122,-392 989.122,4 -4,4"/>
<!-- listening -->
<g id="node1" class="node"><title>listening</title>
<ellipse fill="none" stroke="black" cx="300.122" cy="-282" rx="40.4202" ry="18"/>
<text text-anchor="middle" x="300.122" y="-278.3" font-family="Times,serif" font-size="14.00">listening</text>
</g>
<!-- listening&#45;&gt;listening -->
<g id="edge1" class="edge"><title>listening&#45;&gt;listening</title>
<path fill="none" stroke="black" d="M339.701,-286.089C350.183,-285.855 358.122,-284.492 358.122,-282 358.122,-280.403 354.864,-279.27 349.766,-278.601"/>
<polygon fill="black" stroke="black" points="349.917,-275.103 339.701,-277.911 349.439,-282.087 349.917,-275.103"/>
<text text-anchor="middle" x="375.122" y="-278.3" font-family="Times,serif" font-size="14.00">RSET</text>
</g>
<!-- listening&#45;&gt;listening -->
<g id="edge3" class="edge"><title>listening&#45;&gt;listening</title>
<path fill="none" stroke="black" d="M336.993,-289.484C363.752,-291.67 392.122,-289.176 392.122,-282 392.122,-275.721 370.401,-273.026 347.045,-273.915"/>
<polygon fill="black" stroke="black" points="346.767,-270.426 336.993,-274.516 347.184,-277.413 346.767,-270.426"/>
<text text-anchor="middle" x="410.622" y="-278.3" font-family="Times,serif" font-size="14.00">NOOP</text>
</g>
<!-- wait_for_sender_address -->
<g id="node2" class="node"><title>wait_for_sender_address</title>
<ellipse fill="none" stroke="black" cx="427.122" cy="-194" rx="98.1881" ry="18"/>
<text text-anchor="middle" x="427.122" y="-190.3" font-family="Times,serif" font-size="14.00">wait_for_sender_address</text>
</g>
<!-- listening&#45;&gt;wait_for_sender_address -->
<g id="edge2" class="edge"><title>listening&#45;&gt;wait_for_sender_address</title>
<path fill="none" stroke="black" d="M314.616,-264.905C324.909,-254.109 339.455,-240.077 354.122,-230 362.032,-224.566 370.916,-219.54 379.692,-215.092"/>
<polygon fill="black" stroke="black" points="381.298,-218.203 388.752,-210.673 378.23,-211.911 381.298,-218.203"/>
<text text-anchor="middle" x="372.622" y="-234.3" font-family="Times,serif" font-size="14.00">EHLO</text>
</g>
<!-- error -->
<g id="node3" class="node"><title>error</title>
<ellipse fill="none" stroke="black" cx="490.122" cy="-18" rx="27.4223" ry="18"/>
<text text-anchor="middle" x="490.122" y="-14.3" font-family="Times,serif" font-size="14.00">error</text>
</g>
<!-- listening&#45;&gt;error -->
<g id="edge4" class="edge"><title>listening&#45;&gt;error</title>
<path fill="none" stroke="black" d="M259.876,-279.895C197.505,-277.452 81.2242,-269.761 48.1224,-246 7.35013,-216.733 -7.40862,-190.846 4.1224,-142 14.1689,-99.4422 11.8626,-78.4403 48.1224,-54 81.2971,-31.6392 352.079,-22.5143 452.678,-19.8745"/>
<polygon fill="black" stroke="black" points="452.793,-23.3728 462.7,-19.6183 452.614,-16.375 452.793,-23.3728"/>
<text text-anchor="middle" x="22.1224" y="-146.3" font-family="Times,serif" font-size="14.00">MAIL</text>
</g>
<!-- listening&#45;&gt;error -->
<g id="edge5" class="edge"><title>listening&#45;&gt;error</title>
<path fill="none" stroke="black" d="M260.242,-278.113C210.45,-273.794 128.916,-264.146 105.122,-246 36.9384,-194 20.5804,-109.293 86.1224,-54 113.774,-30.6726 357.466,-22.2416 452.451,-19.8243"/>
<polygon fill="black" stroke="black" points="452.576,-23.3224 462.487,-19.5774 452.404,-16.3245 452.576,-23.3224"/>
<text text-anchor="middle" x="64.1224" y="-146.3" font-family="Times,serif" font-size="14.00">RCPT</text>
</g>
<!-- listening&#45;&gt;error -->
<g id="edge6" class="edge"><title>listening&#45;&gt;error</title>
<path fill="none" stroke="black" d="M272.396,-268.83C208.254,-239.052 59.5164,-159.714 119.122,-88 161.332,-37.2159 367.124,-23.6262 452.691,-20.1436"/>
<polygon fill="black" stroke="black" points="452.891,-23.6386 462.75,-19.7586 452.624,-16.6437 452.891,-23.6386"/>
<text text-anchor="middle" x="136.122" y="-146.3" font-family="Times,serif" font-size="14.00">DATA</text>
</g>
<!-- disconnected -->
<g id="node4" class="node"><title>disconnected</title>
<ellipse fill="none" stroke="black" cx="775.122" cy="-106" rx="56.3173" ry="18"/>
<text text-anchor="middle" x="775.122" y="-102.3" font-family="Times,serif" font-size="14.00">disconnected</text>
</g>
<!-- listening&#45;&gt;disconnected -->
<g id="edge7" class="edge"><title>listening&#45;&gt;disconnected</title>
<path fill="none" stroke="black" d="M339.921,-278.497C405.728,-273.178 540.261,-257.264 644.122,-212 687.709,-193.005 728.939,-155.584 753.117,-130.932"/>
<polygon fill="black" stroke="black" points="755.641,-133.356 760.057,-123.726 750.6,-128.501 755.641,-133.356"/>
<text text-anchor="middle" x="719.622" y="-190.3" font-family="Times,serif" font-size="14.00">QUIT</text>
</g>
<!-- wait_for_sender_address&#45;&gt;listening -->
<g id="edge8" class="edge"><title>wait_for_sender_address&#45;&gt;listening</title>
<path fill="none" stroke="black" d="M418.473,-212.143C412.185,-223.116 402.751,-236.944 391.122,-246 377.519,-256.594 360.334,-264.298 344.572,-269.735"/>
<polygon fill="black" stroke="black" points="343.425,-266.428 334.986,-272.834 345.578,-273.089 343.425,-266.428"/>
<text text-anchor="middle" x="424.122" y="-234.3" font-family="Times,serif" font-size="14.00">RSET</text>
</g>
<!-- wait_for_sender_address&#45;&gt;wait_for_sender_address -->
<g id="edge9" class="edge"><title>wait_for_sender_address&#45;&gt;wait_for_sender_address</title>
<path fill="none" stroke="black" d="M523.571,-197.569C535.38,-196.93 543.122,-195.74 543.122,-194 543.122,-192.831 539.628,-191.91 533.752,-191.238"/>
<polygon fill="black" stroke="black" points="533.816,-187.732 523.571,-190.431 533.263,-194.71 533.816,-187.732"/>
<text text-anchor="middle" x="561.622" y="-190.3" font-family="Times,serif" font-size="14.00">EHLO</text>
</g>
<!-- wait_for_sender_address&#45;&gt;wait_for_sender_address -->
<g id="edge10" class="edge"><title>wait_for_sender_address&#45;&gt;wait_for_sender_address</title>
<path fill="none" stroke="black" d="M514.966,-202.225C549.996,-202.543 580.122,-199.801 580.122,-194 580.122,-188.766 555.593,-186.022 525.065,-185.769"/>
<polygon fill="black" stroke="black" points="524.965,-182.269 514.966,-185.775 524.968,-189.269 524.965,-182.269"/>
<text text-anchor="middle" x="598.622" y="-190.3" font-family="Times,serif" font-size="14.00">NOOP</text>
</g>
<!-- wait_for_sender_address&#45;&gt;error -->
<g id="edge12" class="edge"><title>wait_for_sender_address&#45;&gt;error</title>
<path fill="none" stroke="black" d="M485.018,-179.309C514.118,-169.183 546.802,-152.116 564.122,-124 583.627,-92.3378 546.326,-57.3738 517.946,-36.8429"/>
<polygon fill="black" stroke="black" points="519.703,-33.8011 509.498,-30.9542 515.7,-39.5438 519.703,-33.8011"/>
<text text-anchor="middle" x="587.122" y="-102.3" font-family="Times,serif" font-size="14.00">RCPT</text>
</g>
<!-- wait_for_sender_address&#45;&gt;error -->
<g id="edge13" class="edge"><title>wait_for_sender_address&#45;&gt;error</title>
<path fill="none" stroke="black" d="M511.963,-184.64C549.327,-175.967 589.024,-158.593 608.122,-124 615.855,-109.993 615.401,-102.249 608.122,-88 591.802,-56.0509 553.607,-37.7735 525.065,-28.1622"/>
<polygon fill="black" stroke="black" points="526.013,-24.7913 515.423,-25.1158 523.904,-31.466 526.013,-24.7913"/>
<text text-anchor="middle" x="633.122" y="-102.3" font-family="Times,serif" font-size="14.00">DATA</text>
</g>
<!-- wait_for_sender_address&#45;&gt;disconnected -->
<g id="edge14" class="edge"><title>wait_for_sender_address&#45;&gt;disconnected</title>
<path fill="none" stroke="black" d="M521.594,-188.937C565.815,-184.558 618.458,-175.711 663.122,-158 674.698,-153.41 675.143,-147.874 686.122,-142 699.326,-134.936 714.272,-128.506 728.095,-123.139"/>
<polygon fill="black" stroke="black" points="729.336,-126.412 737.449,-119.599 726.858,-119.865 729.336,-126.412"/>
<text text-anchor="middle" x="702.622" y="-146.3" font-family="Times,serif" font-size="14.00">QUIT</text>
</g>
<!-- wait_for_recipient_address -->
<g id="node5" class="node"><title>wait_for_recipient_address</title>
<ellipse fill="none" stroke="black" cx="235.122" cy="-106" rx="106.386" ry="18"/>
<text text-anchor="middle" x="235.122" y="-102.3" font-family="Times,serif" font-size="14.00">wait_for_recipient_address</text>
</g>
<!-- wait_for_sender_address&#45;&gt;wait_for_recipient_address -->
<g id="edge11" class="edge"><title>wait_for_sender_address&#45;&gt;wait_for_recipient_address</title>
<path fill="none" stroke="black" d="M407.782,-176.316C394.121,-165.257 374.961,-151.152 356.122,-142 340.831,-134.571 323.668,-128.426 307.18,-123.471"/>
<polygon fill="black" stroke="black" points="308.149,-120.108 297.57,-120.69 306.203,-126.832 308.149,-120.108"/>
<text text-anchor="middle" x="401.122" y="-146.3" font-family="Times,serif" font-size="14.00">MAIL</text>
</g>
<!-- wait_for_recipient_address&#45;&gt;listening -->
<g id="edge15" class="edge"><title>wait_for_recipient_address&#45;&gt;listening</title>
<path fill="none" stroke="black" d="M241.499,-124.07C252.876,-154.526 276.746,-218.424 290.255,-254.586"/>
<polygon fill="black" stroke="black" points="286.993,-255.856 293.772,-263.999 293.551,-253.407 286.993,-255.856"/>
<text text-anchor="middle" x="291.122" y="-190.3" font-family="Times,serif" font-size="14.00">RSET</text>
</g>
<!-- wait_for_recipient_address&#45;&gt;wait_for_sender_address -->
<g id="edge16" class="edge"><title>wait_for_recipient_address&#45;&gt;wait_for_sender_address</title>
<path fill="none" stroke="black" d="M257.646,-123.648C273.188,-134.549 294.661,-148.486 315.122,-158 330.038,-164.935 346.686,-170.977 362.49,-175.999"/>
<polygon fill="black" stroke="black" points="361.611,-179.391 372.198,-178.994 363.674,-172.702 361.611,-179.391"/>
<text text-anchor="middle" x="333.622" y="-146.3" font-family="Times,serif" font-size="14.00">EHLO</text>
</g>
<!-- wait_for_recipient_address&#45;&gt;error -->
<g id="edge18" class="edge"><title>wait_for_recipient_address&#45;&gt;error</title>
<path fill="none" stroke="black" d="M280.711,-89.6249C331.188,-72.6015 411.367,-45.5606 456.461,-30.3524"/>
<polygon fill="black" stroke="black" points="457.706,-33.6265 466.063,-27.1143 455.469,-26.9936 457.706,-33.6265"/>
<text text-anchor="middle" x="404.122" y="-58.3" font-family="Times,serif" font-size="14.00">MAIL</text>
</g>
<!-- wait_for_recipient_address&#45;&gt;wait_for_recipient_address -->
<g id="edge17" class="edge"><title>wait_for_recipient_address&#45;&gt;wait_for_recipient_address</title>
<path fill="none" stroke="black" d="M340.954,-107.709C352.027,-107.375 359.122,-106.806 359.122,-106 359.122,-105.484 356.21,-105.065 351.206,-104.742"/>
<polygon fill="black" stroke="black" points="351.099,-101.234 340.954,-104.291 350.791,-108.227 351.099,-101.234"/>
<text text-anchor="middle" x="377.622" y="-102.3" font-family="Times,serif" font-size="14.00">NOOP</text>
</g>
<!-- wait_for_recipient_address&#45;&gt;wait_for_recipient_address -->
<g id="edge19" class="edge"><title>wait_for_recipient_address&#45;&gt;wait_for_recipient_address</title>
<path fill="none" stroke="black" d="M338.948,-110.113C370.729,-109.97 396.122,-108.6 396.122,-106 396.122,-103.685 375.98,-102.344 349.122,-101.978"/>
<polygon fill="black" stroke="black" points="348.979,-98.4768 338.948,-101.887 348.917,-105.476 348.979,-98.4768"/>
<text text-anchor="middle" x="413.122" y="-102.3" font-family="Times,serif" font-size="14.00">RCPT</text>
</g>
<!-- wait_for_recipient_address&#45;&gt;wait_for_recipient_address -->
<g id="edge20" class="edge"><title>wait_for_recipient_address&#45;&gt;wait_for_recipient_address</title>
<path fill="none" stroke="black" d="M335.315,-112.075C384.517,-112.706 430.122,-110.681 430.122,-106 430.122,-101.639 390.539,-99.5833 345.342,-99.8327"/>
<polygon fill="black" stroke="black" points="345.283,-96.333 335.315,-99.9249 345.347,-103.333 345.283,-96.333"/>
<text text-anchor="middle" x="449.122" y="-102.3" font-family="Times,serif" font-size="14.00">DATA</text>
</g>
<!-- wait_for_recipient_address&#45;&gt;wait_for_recipient_address -->
<g id="edge21" class="edge"><title>wait_for_recipient_address&#45;&gt;wait_for_recipient_address</title>
<path fill="none" stroke="black" d="M331.551,-113.642C397.932,-115.54 468.122,-112.993 468.122,-106 468.122,-99.362 404.88,-96.7297 341.684,-98.1032"/>
<polygon fill="black" stroke="black" points="341.46,-94.6076 331.551,-98.3581 341.636,-101.605 341.46,-94.6076"/>
<text text-anchor="middle" x="484.622" y="-102.3" font-family="Times,serif" font-size="14.00">QUIT</text>
</g>
<!-- receiving_data -->
<g id="node6" class="node"><title>receiving_data</title>
<ellipse fill="none" stroke="black" cx="812.122" cy="-370" rx="62.0922" ry="18"/>
<text text-anchor="middle" x="812.122" y="-366.3" font-family="Times,serif" font-size="14.00">receiving_data</text>
</g>
<!-- receiving_data&#45;&gt;listening -->
<g id="edge22" class="edge"><title>receiving_data&#45;&gt;listening</title>
<path fill="none" stroke="black" d="M759.736,-360.201C659.775,-343.41 443.256,-307.042 347.412,-290.943"/>
<polygon fill="black" stroke="black" points="347.869,-287.471 337.427,-289.266 346.709,-294.374 347.869,-287.471"/>
<text text-anchor="middle" x="619.122" y="-322.3" font-family="Times,serif" font-size="14.00">RSET</text>
</g>
<!-- receiving_data&#45;&gt;wait_for_sender_address -->
<g id="edge23" class="edge"><title>receiving_data&#45;&gt;wait_for_sender_address</title>
<path fill="none" stroke="black" d="M779.96,-354.464C711.188,-323.383 549.741,-250.417 471.364,-214.995"/>
<polygon fill="black" stroke="black" points="472.783,-211.795 462.229,-210.866 469.9,-218.174 472.783,-211.795"/>
<text text-anchor="middle" x="676.622" y="-278.3" font-family="Times,serif" font-size="14.00">EHLO</text>
</g>
<!-- receiving_data&#45;&gt;error -->
<g id="edge25" class="edge"><title>receiving_data&#45;&gt;error</title>
<path fill="none" stroke="black" d="M828.106,-352.407C842.069,-336.109 860.122,-309.845 860.122,-283 860.122,-283 860.122,-283 860.122,-105 860.122,-37.2919 622.08,-22.8718 527.861,-19.8161"/>
<polygon fill="black" stroke="black" points="527.73,-16.3107 517.63,-19.511 527.521,-23.3076 527.73,-16.3107"/>
<text text-anchor="middle" x="878.122" y="-190.3" font-family="Times,serif" font-size="14.00">MAIL</text>
</g>
<!-- receiving_data&#45;&gt;error -->
<g id="edge26" class="edge"><title>receiving_data&#45;&gt;error</title>
<path fill="none" stroke="black" d="M855.785,-357.12C890.096,-344.821 932.122,-321.831 932.122,-283 932.122,-283 932.122,-283 932.122,-105 932.122,-22.9134 634.676,-17.6303 527.797,-18.3815"/>
<polygon fill="black" stroke="black" points="527.739,-14.8818 517.771,-18.474 527.803,-21.8815 527.739,-14.8818"/>
<text text-anchor="middle" x="949.122" y="-190.3" font-family="Times,serif" font-size="14.00">RCPT</text>
</g>
<!-- receiving_data&#45;&gt;disconnected -->
<g id="edge28" class="edge"><title>receiving_data&#45;&gt;disconnected</title>
<path fill="none" stroke="black" d="M809.695,-351.809C803.423,-307.396 786.637,-188.533 779.001,-134.461"/>
<polygon fill="black" stroke="black" points="782.423,-133.666 777.559,-124.254 775.492,-134.645 782.423,-133.666"/>
<text text-anchor="middle" x="810.622" y="-234.3" font-family="Times,serif" font-size="14.00">QUIT</text>
</g>
<!-- receiving_data&#45;&gt;receiving_data -->
<g id="edge24" class="edge"><title>receiving_data&#45;&gt;receiving_data</title>
<path fill="none" stroke="black" d="M873.163,-373.898C884.307,-373.405 892.122,-372.105 892.122,-370 892.122,-368.618 888.756,-367.584 883.293,-366.896"/>
<polygon fill="black" stroke="black" points="883.406,-363.394 873.163,-366.102 882.859,-370.373 883.406,-363.394"/>
<text text-anchor="middle" x="910.622" y="-366.3" font-family="Times,serif" font-size="14.00">NOOP</text>
</g>
<!-- receiving_data&#45;&gt;receiving_data -->
<g id="edge27" class="edge"><title>receiving_data&#45;&gt;receiving_data</title>
<path fill="none" stroke="black" d="M868.092,-377.948C899.196,-379.202 929.122,-376.553 929.122,-370 929.122,-364.164 905.384,-361.424 878.218,-361.781"/>
<polygon fill="black" stroke="black" points="877.994,-358.285 868.092,-362.052 878.182,-365.283 877.994,-358.285"/>
<text text-anchor="middle" x="948.122" y="-366.3" font-family="Times,serif" font-size="14.00">DATA</text>
</g>
</g>
</svg>
